<svg width="512" height="512" viewBox="0 0 512 512" fill="none" xmlns="http://www.w3.org/2000/svg">
<rect width="512" height="512" rx="34" fill="#FDB623"/>
<g filter="url(#filter0_d_13_272)">
<g clip-path="url(#clip0_13_272)">
<path d="M56 70.5C56 67.1848 57.317 64.0054 59.6612 61.6612C62.0054 59.317 65.1848 58 68.5 58H143.5C146.815 58 149.995 59.317 152.339 61.6612C154.683 64.0054 156 67.1848 156 70.5C156 73.8152 154.683 76.9946 152.339 79.3388C149.995 81.683 146.815 83 143.5 83H102C90.402 83 81 92.402 81 104V145.5C81 148.815 79.683 151.995 77.3388 154.339C74.9946 156.683 71.8152 158 68.5 158C65.1848 158 62.0054 156.683 59.6612 154.339C57.317 151.995 56 148.815 56 145.5V70.5ZM356 70.5C356 67.1848 357.317 64.0054 359.661 61.6612C362.005 59.317 365.185 58 368.5 58H443.5C446.815 58 449.995 59.317 452.339 61.6612C454.683 64.0054 456 67.1848 456 70.5V145.5C456 148.815 454.683 151.995 452.339 154.339C449.995 156.683 446.815 158 443.5 158C440.185 158 437.005 156.683 434.661 154.339C432.317 151.995 431 148.815 431 145.5V104C431 92.402 421.598 83 410 83H368.5C365.185 83 362.005 81.683 359.661 79.3388C357.317 76.9946 356 73.8152 356 70.5ZM68.5 358C71.8152 358 74.9946 359.317 77.3388 361.661C79.683 364.005 81 367.185 81 370.5V412C81 423.598 90.402 433 102 433H143.5C146.815 433 149.995 434.317 152.339 436.661C154.683 439.005 156 442.185 156 445.5C156 448.815 154.683 451.995 152.339 454.339C149.995 456.683 146.815 458 143.5 458H68.5C65.1848 458 62.0054 456.683 59.6612 454.339C57.317 451.995 56 448.815 56 445.5V370.5C56 367.185 57.317 364.005 59.6612 361.661C62.0054 359.317 65.1848 358 68.5 358ZM443.5 358C446.815 358 449.995 359.317 452.339 361.661C454.683 364.005 456 367.185 456 370.5V445.5C456 448.815 454.683 451.995 452.339 454.339C449.995 456.683 446.815 458 443.5 458H368.5C365.185 458 362.005 456.683 359.661 454.339C357.317 451.995 356 448.815 356 445.5C356 442.185 357.317 439.005 359.661 436.661C362.005 434.317 365.185 433 368.5 433H410C421.598 433 431 423.598 431 412V370.5C431 367.185 432.317 364.005 434.661 361.661C437.005 359.317 440.185 358 443.5 358ZM156 170.5C156 163.596 161.596 158 168.5 158C175.404 158 181 163.596 181 170.5C181 177.404 175.404 183 168.5 183C161.596 183 156 177.404 156 170.5Z" fill="#333333"/>
<path d="M231 108H106V233H231V108ZM131 133H206V208H131V133ZM181 333H156V358H181V333Z" fill="white"/>
<path d="M231 283H106V408H231V283ZM131 308H206V383H131V308ZM331 158H356V183H331V158Z" fill="white"/>
<path d="M281 108H406V233H281V108ZM306 133V208H381V133H306ZM256 258V308H281V333H256V358H306V308H331V358H356V333H406V308H331V258H256ZM306 308H281V283H306V308ZM406 358H381V383H331V408H406V358ZM306 408V383H256V408H306Z" fill="white"/>
<path d="M356 283H406V258H356V283Z" fill="white"/>
<circle cx="168.222" cy="170.222" r="14.4444" fill="#333333"/>
<path d="M63.7778 258L451.556 254.667" stroke="#333333" stroke-width="7" stroke-linecap="round" stroke-linejoin="round"/>
</g>
</g>
<defs>
<filter id="filter0_d_13_272" x="56" y="58" width="400" height="400" filterUnits="userSpaceOnUse" color-interpolation-filters="sRGB">
<feFlood flood-opacity="0" result="BackgroundImageFix"/>
<feColorMatrix in="SourceAlpha" type="matrix" values="0 0 0 0 0 0 0 0 0 0 0 0 0 0 0 0 0 0 127 0" result="hardAlpha"/>
<feOffset/>
<feComposite in2="hardAlpha" operator="out"/>
<feColorMatrix type="matrix" values="0 0 0 0 0 0 0 0 0 0 0 0 0 0 0 0 0 0 0.45 0"/>
<feBlend mode="normal" in2="BackgroundImageFix" result="effect1_dropShadow_13_272"/>
<feBlend mode="normal" in="SourceGraphic" in2="effect1_dropShadow_13_272" result="shape"/>
</filter>
<clipPath id="clip0_13_272">
<rect width="400" height="400" fill="white" transform="translate(56 58)"/>
</clipPath>
</defs>
</svg>
